<svg width="32" height="32" viewBox="0 0 32 32" fill="none" xmlns="http://www.w3.org/2000/svg">
<circle cx="16" cy="16" r="16" fill="#767676"/>
<path fill-rule="evenodd" clip-rule="evenodd" d="M24.1989 10.2994C24.4828 10.5921 24.6844 10.9544 24.7834 11.3499C25.0477 12.8155 25.176 14.3024 25.1667 15.7916C25.172 17.2585 25.0437 18.7229 24.7834 20.1666C24.6844 20.5621 24.4828 20.9244 24.1989 21.2171C23.915 21.5097 23.559 21.7223 23.1667 21.8333C21.7334 22.2166 16 22.2166 16 22.2166C16 22.2166 10.2667 22.2166 8.83336 21.8333C8.44905 21.7281 8.09835 21.5256 7.81515 21.2453C7.53195 20.965 7.32583 20.6165 7.2167 20.2333C6.95234 18.7677 6.82401 17.2808 6.83336 15.7916C6.82606 14.3135 6.95437 12.8379 7.2167 11.3833C7.31569 10.9878 7.51729 10.6254 7.80115 10.3328C8.08501 10.0401 8.44107 9.82757 8.83336 9.71659C10.2667 9.33325 16 9.33325 16 9.33325C16 9.33325 21.7334 9.33325 23.1667 9.68325C23.559 9.79424 23.915 10.0068 24.1989 10.2994ZM18.9167 15.7917L14.125 18.5167V13.0667L18.9167 15.7917Z" fill="#F2F2F2"/>
</svg>
